<svg width="51" height="51" viewBox="0 0 51 51" fill="none" xmlns="http://www.w3.org/2000/svg">
<path fill-rule="evenodd" clip-rule="evenodd" d="M32.4992 35.3276L15.5286 18.357L7.51472 26.3709C2.82843 31.0572 2.82843 38.6552 7.51472 43.3415C12.201 48.0278 19.799 48.0278 24.4853 43.3415L32.4992 35.3276ZM35.3276 32.4992L18.357 15.5286L26.3709 7.51472C31.0572 2.82843 38.6552 2.82843 43.3415 7.51472C48.0278 12.201 48.0278 19.799 43.3415 24.4853L35.3276 32.4992ZM46.1699 27.3137C52.4183 21.0653 52.4183 10.9347 46.1699 4.68629C39.9215 -1.5621 29.7909 -1.5621 23.5425 4.68629L4.68629 23.5425C-1.5621 29.7909 -1.5621 39.9215 4.68629 46.1699C10.9347 52.4183 21.0653 52.4183 27.3137 46.1699L46.1699 27.3137Z" fill="#363538"/>
</svg>
