<svg width="53" height="53" viewBox="0 0 53 53" fill="none" xmlns="http://www.w3.org/2000/svg">
<path fill-rule="evenodd" clip-rule="evenodd" d="M9.48687 2.66667C9.48687 4.13943 8.29297 5.33333 6.82021 5.33333C6.3376 5.33333 5.88494 5.20513 5.49442 4.98093C4.49544 5.49253 3.88042 6.56555 4.02144 7.72573C4.73689 13.6118 6.18741 22.7796 8.6585 28.5455C9.861 31.3513 11.5466 32.9899 13.4352 33.9635C15.3709 34.9614 17.664 35.3333 20.1535 35.3333C22.6658 35.3333 25.035 34.9848 27.0045 33.9981C28.9108 33.0431 30.5637 31.4325 31.6142 28.6311C34.0775 22.0622 35.5218 13.2918 36.2473 7.7035C36.3961 6.55771 35.7952 5.49312 34.8094 4.9828C34.4196 5.20584 33.9681 5.33333 33.4869 5.33333C32.0141 5.33333 30.8202 4.13943 30.8202 2.66667C30.8202 1.19391 32.0141 0 33.4869 0C34.321 0 35.0656 0.382924 35.5546 0.982577C38.5481 1.92398 40.6507 4.85486 40.214 8.21849C39.4834 13.8463 37.9953 23.0069 35.3595 30.0356C33.9571 33.7753 31.61 36.1647 28.7962 37.5744C26.454 38.7478 23.8795 39.1982 21.4249 39.3061C20.4613 41.4096 19.9817 43.0945 20.0263 44.4734C20.0715 45.8724 20.6632 47.1805 22.5963 48.4692C22.9965 48.736 23.4244 48.8633 23.9054 48.8821C25.1219 48.9295 26.3699 48.3952 27.8033 47.2594C29.0901 46.2397 30.3116 44.9152 31.6368 43.4782C31.8078 43.2928 31.9807 43.1052 32.1555 42.9165C33.599 41.3578 35.2381 39.6382 37.0385 38.5815C38.969 37.4485 41.2597 36.9837 43.7146 38.2111C43.7474 38.2276 43.7796 38.2447 43.8111 38.2627C44.6676 37.6763 45.7038 37.3333 46.8202 37.3333C49.7657 37.3333 52.1535 39.7211 52.1535 42.6667C52.1535 45.6122 49.7657 48 46.8202 48C43.8747 48 41.4869 45.6122 41.4869 42.6667C41.4869 42.3158 41.5207 41.9729 41.5854 41.641C40.7723 41.3431 40.013 41.4738 39.0633 42.0312C37.8525 42.7419 36.5941 44.0106 35.0903 45.6344C34.9241 45.8138 34.7551 45.9975 34.5832 46.1841C33.2896 47.5893 31.8386 49.1654 30.2875 50.3945C28.5103 51.8027 26.3343 52.9797 23.7497 52.879C22.6019 52.8343 21.446 52.5098 20.3775 51.7974C17.5296 49.8989 16.1212 47.4736 16.0284 44.6027C15.9708 42.8229 16.427 40.9891 17.1415 39.1572C15.2544 38.9231 13.3673 38.4288 11.6024 37.5189C8.84574 36.0978 6.5313 33.7364 4.98192 30.1212C2.25789 23.7651 0.762391 14.0637 0.0506642 8.20838C-0.35844 4.84269 1.75532 1.91829 4.75409 0.980631C5.2431 0.382102 5.98703 0 6.82021 0C8.29297 0 9.48687 1.19391 9.48687 2.66667ZM48.1535 42.6667C48.1535 43.403 47.5566 44 46.8202 44C46.0838 44 45.4869 43.403 45.4869 42.6667C45.4869 41.9303 46.0838 41.3333 46.8202 41.3333C47.5566 41.3333 48.1535 41.9303 48.1535 42.6667Z" fill="#363538"/>
</svg>
