<svg width="42" height="53" viewBox="0 0 42 53" fill="none" xmlns="http://www.w3.org/2000/svg">
<path fill-rule="evenodd" clip-rule="evenodd" d="M36.9133 4.01975C36.8984 4.02797 36.7947 4.08525 36.7001 4.33913C35.0325 8.81542 33.4812 13.83 33.0157 17.8884C32.7816 19.9303 32.8457 21.5495 33.184 22.6831C33.4994 23.7401 33.9876 24.2145 34.6325 24.4294C35.6734 24.7764 36.6171 24.8052 37.3334 24.735V4.56387C37.3334 4.28688 37.2537 4.1612 37.2141 4.11233C37.1653 4.05205 37.1032 4.01782 37.0432 4.00535C36.9842 3.9931 36.942 4.00394 36.9133 4.01975ZM37.3334 28.7468V50.3268C37.3334 51.4314 38.2288 52.3268 39.3334 52.3268C40.438 52.3268 41.3334 51.4314 41.3334 50.3268V4.56387C41.3334 2.20829 39.7949 0.491665 37.8569 0.0889955C35.8875 -0.320206 33.7908 0.690333 32.9517 2.94274C31.2571 7.49166 29.5643 12.8763 29.0418 17.4326C28.782 19.6981 28.7879 21.9402 29.351 23.8269C29.9369 25.7903 31.1813 27.4954 33.3676 28.2242C34.8604 28.7218 36.2322 28.8131 37.3334 28.7468Z" fill="#363538"/>
<path fill-rule="evenodd" clip-rule="evenodd" d="M2 0.326976C3.10457 0.326976 4 1.22241 4 2.32698V12.9936C4 14.8346 5.49238 16.327 7.33333 16.327H8V2.32698C8 1.22241 8.89543 0.326976 10 0.326976C11.1046 0.326976 12 1.22241 12 2.32698V16.327H12.6667C14.5076 16.327 16 14.8346 16 12.9936V2.32698C16 1.22241 16.8954 0.326976 18 0.326976C19.1046 0.326976 20 1.22241 20 2.32698V12.9936C20 17.0437 16.7168 20.327 12.6667 20.327H12V50.327C12 51.4315 11.1046 52.327 10 52.327C8.89543 52.327 8 51.4315 8 50.327V20.327H7.33333C3.28325 20.327 0 17.0437 0 12.9936V2.32698C0 1.22241 0.895431 0.326976 2 0.326976Z" fill="#363538"/>
</svg>
