<svg width="31" height="53" viewBox="0 0 31 53" fill="none" xmlns="http://www.w3.org/2000/svg">
<path fill-rule="evenodd" clip-rule="evenodd" d="M23.3333 0C24.4379 -1.1218e-07 25.3333 0.895432 25.3333 2V11.875C25.3333 12.8944 25.6269 13.9687 26.1146 15.1276C26.2929 15.5514 26.4623 16.0014 26.6198 16.4688L26.6224 16.4714C26.6386 16.4849 26.6575 16.5016 26.6797 16.5208C26.7245 16.5597 26.7825 16.6092 26.849 16.6719C26.982 16.7973 27.155 16.9722 27.3542 17.1979C27.7524 17.6493 28.2543 18.3079 28.7474 19.1953C29.7407 20.9833 30.6667 23.6498 30.6667 27.3333C30.6667 30.9421 29.9436 33.5528 29.1615 35.3125C28.772 36.1888 28.3708 36.8442 28.0495 37.2995C27.8893 37.5264 27.7502 37.7041 27.6406 37.8333C27.5857 37.898 27.538 37.951 27.5 37.9922C27.4813 38.0124 27.4646 38.0296 27.4505 38.0443L27.4167 38.0781L27.3359 37.9974L27.3333 38L27.4141 38.0807C27.3799 38.1149 27.3433 38.1459 27.3073 38.1771C27.0967 39.671 26.6353 41.1247 26.1146 42.362C25.6269 43.5209 25.3333 44.5952 25.3333 45.6146V50.1563C25.3333 51.2608 24.4379 52.1563 23.3333 52.1563C22.2288 52.1562 21.3333 51.2608 21.3333 50.1563V45.6146C21.3333 43.85 21.8349 42.2169 22.4271 40.8099C23.0388 39.3564 23.4503 37.7861 23.4297 36.4583C23.4105 35.2353 23.0414 34.4241 22.3203 33.8958C21.6836 33.5976 21.2847 33.5761 21.026 33.6094C20.7198 33.6488 20.3861 33.7851 19.9141 34.0885C19.6737 34.2431 19.4385 34.4131 19.1458 34.6224C18.8704 34.8193 18.5381 35.054 18.1875 35.2682C17.4804 35.7003 16.5254 36.1562 15.3333 36.1563C14.0565 36.1563 13.0594 35.5895 12.3698 35.1042C12.0223 34.8597 11.6917 34.5918 11.4219 34.3724C11.1338 34.1381 10.9032 33.9491 10.6719 33.7839C10.2096 33.4537 9.93259 33.3538 9.72396 33.3359C9.55397 33.3216 9.16513 33.3387 8.44271 33.8203C7.6552 34.3455 7.25703 35.18 7.23698 36.4583C7.21638 37.7862 7.62783 39.3564 8.23958 40.8099C8.83175 42.2169 9.33332 43.85 9.33333 45.6146V50.1563C9.33333 51.2608 8.4379 52.1562 7.33333 52.1563C6.22892 52.1561 5.33334 51.2607 5.33333 50.1563V45.6146C5.33333 44.5952 5.03984 43.521 4.55208 42.362C4.03011 41.1218 3.56664 39.6643 3.35677 38.1667C3.29209 38.1101 3.22465 38.0555 3.16667 37.9896L3.03906 37.8281L3.03646 37.8255L3.03125 37.8177C3.0278 37.8128 3.02293 37.8062 3.01823 37.7995C3.00887 37.7861 2.99842 37.768 2.98437 37.7474C2.95616 37.7059 2.91759 37.6508 2.8724 37.5807C2.78132 37.4396 2.65697 37.2389 2.51302 36.987C2.22565 36.484 1.85218 35.7641 1.48177 34.8568C0.741687 33.0436 0 30.4503 0 27.3333C0 24.1354 0.951454 21.4896 1.88542 19.6589C2.35399 18.7404 2.8244 18.0125 3.1849 17.5078C3.3651 17.2555 3.51924 17.0575 3.63281 16.9167C3.68968 16.8461 3.73821 16.7888 3.77344 16.7474C3.79022 16.7277 3.80383 16.7109 3.8151 16.6979C3.82075 16.6914 3.82658 16.6844 3.83073 16.6797C3.83284 16.6773 3.83423 16.6738 3.83594 16.6719L3.83854 16.6693C3.84118 16.6713 3.8592 16.6842 3.95052 16.7656L3.84115 16.6667C3.90474 16.5955 3.97338 16.5312 4.04427 16.4714C4.20208 16.0028 4.37332 15.5523 4.55208 15.1276C5.03984 13.9686 5.33333 12.8944 5.33333 11.875V2C5.33334 0.895544 6.22892 0.00018103 7.33333 0C8.4379 2.86102e-06 9.33333 0.895433 9.33333 2V11.875C9.33333 13.6396 8.83175 15.2727 8.23958 16.6797C7.62783 18.1331 7.21638 19.7034 7.23698 21.0313C7.25703 22.3096 7.6552 23.1441 8.44271 23.6693C9.16513 24.1509 9.55397 24.168 9.72396 24.1536C9.93259 24.1358 10.2096 24.0359 10.6719 23.7057C10.9032 23.5405 11.1338 23.3514 11.4219 23.1172C11.6917 22.8978 12.0223 22.6299 12.3698 22.3854C13.0594 21.9001 14.0565 21.3333 15.3333 21.3333C16.5254 21.3333 17.4804 21.7893 18.1875 22.2214C18.5381 22.4356 18.8704 22.6703 19.1458 22.8672C19.4385 23.0764 19.6737 23.2465 19.9141 23.401C20.3861 23.7045 20.7198 23.8408 21.026 23.8802C21.2847 23.9135 21.6836 23.8919 22.3203 23.5938C23.0414 23.0654 23.4105 22.2543 23.4297 21.0313C23.4503 19.7034 23.0388 18.1331 22.4271 16.6797C21.8349 15.2727 21.3333 13.6395 21.3333 11.875V2C21.3333 0.895433 22.2288 2.86102e-06 23.3333 0ZM26.4687 24.8385C26.0038 25.6499 25.3488 26.3933 24.4427 26.9974C24.3737 27.0434 24.3007 27.0853 24.2266 27.1224C22.9313 27.7699 21.6997 28.0012 20.5156 27.849C19.3639 27.7008 18.4471 27.212 17.7526 26.7656C17.4101 26.5454 17.0817 26.3085 16.8177 26.1198C16.5365 25.9188 16.3157 25.7621 16.1042 25.6328C15.6863 25.3775 15.4743 25.3333 15.3333 25.3333C15.2768 25.3333 15.1071 25.35 14.6719 25.6563C14.4569 25.8076 14.2328 25.9876 13.9453 26.2214C13.6769 26.4396 13.346 26.7101 12.9948 26.9609C12.2907 27.4638 11.3164 28.0307 10.0677 28.138C8.77885 28.2485 7.49963 27.8479 6.22396 26.9974C5.34834 26.4136 4.70425 25.7013 4.24219 24.9219C4.09217 25.6713 4 26.478 4 27.3333C4 29.0927 4.30068 30.6458 4.6849 31.9193C5.09251 31.3935 5.59829 30.9094 6.22396 30.4922C7.49963 29.6417 8.77885 29.2411 10.0677 29.3516C11.3164 29.4589 12.2907 30.0258 12.9948 30.5286C13.346 30.7795 13.6769 31.05 13.9453 31.2682C14.2328 31.502 14.4569 31.682 14.6719 31.8333C15.1071 32.1396 15.2768 32.1563 15.3333 32.1563C15.4743 32.1562 15.6863 32.1121 16.1042 31.8568C16.3157 31.7275 16.5365 31.5708 16.8177 31.3698C17.0817 31.1811 17.4101 30.9441 17.7526 30.724C18.4471 30.2776 19.3639 29.7888 20.5156 29.6406C21.6997 29.4884 22.9313 29.7197 24.2266 30.3672C24.3007 30.4043 24.3737 30.4462 24.4427 30.4922C25.1199 30.9437 25.6573 31.4729 26.0807 32.0495C26.409 30.8607 26.6667 29.306 26.6667 27.3333C26.6667 26.4088 26.587 25.5801 26.4687 24.8385Z" fill="#363538"/>
</svg>
