<svg width="29" height="29" viewBox="0 0 29 29" fill="none" xmlns="http://www.w3.org/2000/svg">
<g clip-path="url(#clip0_292_449)">
<path d="M21.4141 0H7.1259C3.19037 0 0 3.19037 0 7.1259V21.4141C0 25.3496 3.19037 28.54 7.1259 28.54H21.4141C25.3496 28.54 28.54 25.3496 28.54 21.4141V7.1259C28.54 3.19037 25.3496 0 21.4141 0Z" fill="#171B18"/>
<path d="M21.4141 0H7.1259C3.19037 0 0 3.19037 0 7.1259V21.4141C0 25.3496 3.19037 28.54 7.1259 28.54H21.4141C25.3496 28.54 28.54 25.3496 28.54 21.4141V7.1259C28.54 3.19037 25.3496 0 21.4141 0Z" fill="url(#paint0_radial_292_449)"/>
<path fill-rule="evenodd" clip-rule="evenodd" d="M14.5043 25.0671C12.3636 25.0671 11.3688 24.7546 9.63954 23.5045C8.54575 24.9109 5.0821 26.0099 4.93104 24.1296C4.93104 22.7181 4.61853 21.5254 4.26435 20.2232C3.84247 18.619 3.36328 16.8325 3.36328 14.2439C3.36328 8.06135 8.43638 3.41016 14.447 3.41016C20.4628 3.41016 25.1765 8.29053 25.1765 14.3011C25.1967 20.2188 20.4219 25.0355 14.5043 25.0671ZM14.5928 8.75407C11.6657 8.60304 9.38431 10.6291 8.87909 13.8063C8.46241 16.4366 9.20202 19.6399 9.83224 19.8065C10.1343 19.8794 10.8948 19.2648 11.3688 18.7909C12.1525 19.3323 13.0652 19.6575 14.0147 19.7336C17.0477 19.8795 19.6394 17.5704 19.843 14.5408C19.9615 11.5046 17.6263 8.93305 14.5928 8.75929V8.75407Z" fill="white"/>
</g>
<defs>
<radialGradient id="paint0_radial_292_449" cx="0" cy="0" r="1" gradientUnits="userSpaceOnUse" gradientTransform="translate(-0.678989 -12.5344) rotate(51.356) scale(34.6338 14.27)">
<stop stop-color="#0000FF"/>
<stop offset="1" stop-opacity="0"/>
</radialGradient>
<clipPath id="clip0_292_449">
<rect width="28.54" height="28.54" fill="white"/>
</clipPath>
</defs>
</svg>
