<svg width="29" height="29" viewBox="0 0 29 29" fill="none" xmlns="http://www.w3.org/2000/svg">
<path d="M14.3418 0C6.42515 0 0 6.42515 0 14.3418C0 22.2585 6.42515 28.6837 14.3418 28.6837C22.2585 28.6837 28.6837 22.2585 28.6837 14.3418C28.6837 6.42515 22.2585 0 14.3418 0ZM20.9965 9.75246C20.7813 12.0185 19.8491 17.5257 19.3758 20.0642C19.175 21.1399 18.7735 21.4984 18.4006 21.5415C17.5688 21.6132 16.9377 20.9965 16.1346 20.4658C14.8725 19.634 14.1554 19.1177 12.9363 18.3145C11.5165 17.3823 12.4344 16.866 13.2519 16.0342C13.467 15.8191 17.1385 12.4774 17.2102 12.1762C17.2202 12.1306 17.2189 12.0833 17.2064 12.0383C17.1939 11.9933 17.1706 11.952 17.1385 11.9181C17.0525 11.8464 16.9377 11.875 16.8373 11.8894C16.7083 11.9181 14.7004 13.2519 10.7851 15.8908C10.2114 16.278 9.69509 16.4788 9.23615 16.4644C8.71984 16.4501 7.7446 16.1776 7.01316 15.9338C6.10963 15.647 5.40688 15.4892 5.46424 14.9872C5.49293 14.7291 5.85147 14.4709 6.52554 14.1984C10.7134 12.377 13.4957 11.1723 14.8868 10.5986C18.8739 8.93497 19.6914 8.64813 20.2363 8.64813C20.3511 8.64813 20.6236 8.67682 20.7957 8.82024C20.9391 8.93497 20.9821 9.09273 20.9965 9.20747C20.9821 9.29352 21.0108 9.55167 20.9965 9.75246Z" fill="#171B18"/>
</svg>
