<svg width="29" height="29" viewBox="0 0 29 29" fill="none" xmlns="http://www.w3.org/2000/svg">
<path d="M24.3811 4.17355C23.0661 2.84565 21.4999 1.79276 19.7738 1.07624C18.0478 0.359711 16.1964 -0.00611417 14.3275 7.72956e-05C6.49686 7.72956e-05 0.114735 6.3822 0.114735 14.2128C0.114735 16.7227 0.77446 19.1608 2.00786 21.3121L0 28.6838L7.52947 26.7046C9.60904 27.8376 11.9468 28.44 14.3275 28.44C22.1582 28.44 28.5403 22.0578 28.5403 14.2272C28.5403 10.4266 27.0631 6.85548 24.3811 4.17355ZM14.3275 26.0305C12.2049 26.0305 10.1253 25.4569 8.30393 24.3812L7.87367 24.1231L3.39902 25.2991L4.58939 20.9392L4.30255 20.4946C3.12301 18.6116 2.49681 16.4348 2.49548 14.2128C2.49548 7.70165 7.80196 2.39517 14.3132 2.39517C17.4684 2.39517 20.4371 3.62856 22.6601 5.86589C23.761 6.96141 24.6334 8.26463 25.2268 9.69994C25.8201 11.1353 26.1225 12.6741 26.1165 14.2272C26.1452 20.7384 20.8387 26.0305 14.3275 26.0305ZM20.81 17.196C20.4515 17.0238 18.7018 16.1633 18.3862 16.0343C18.0564 15.9195 17.8269 15.8622 17.5831 16.2064C17.3393 16.5649 16.6652 17.3681 16.4644 17.5975C16.2637 17.8413 16.0485 17.87 15.69 17.6836C15.3314 17.5115 14.1841 17.1242 12.836 15.9195C11.7747 14.973 11.0719 13.8113 10.8568 13.4527C10.656 13.0942 10.8281 12.9077 11.0145 12.7213C11.1723 12.5635 11.3731 12.3054 11.5452 12.1046C11.7173 11.9038 11.789 11.746 11.9037 11.5166C12.0185 11.2728 11.9611 11.072 11.875 10.8999C11.789 10.7278 11.0719 8.97807 10.7851 8.26098C10.4982 7.57257 10.1971 7.65862 9.98192 7.64428H9.29352C9.0497 7.64428 8.67682 7.73033 8.34695 8.08888C8.03143 8.44742 7.11356 9.30794 7.11356 11.0576C7.11356 12.8073 8.38998 14.4997 8.56208 14.7292C8.73418 14.973 11.0719 18.5584 14.6287 20.093C15.4749 20.4659 16.1346 20.681 16.6509 20.8388C17.4971 21.1113 18.2715 21.0682 18.8882 20.9822C19.5766 20.8818 20.9965 20.1217 21.2833 19.2899C21.5845 18.458 21.5845 17.7553 21.4841 17.5975C21.3837 17.4398 21.1686 17.3681 20.81 17.196Z" fill="#171B18"/>
</svg>
